<svg id="visual" viewBox="0 0 960 540" width="960" height="540" xmlns="http://www.w3.org/2000/svg" xmlns:xlink="http://www.w3.org/1999/xlink" version="1.1"><path d="M0 71L14.5 72.8C29 74.7 58 78.3 87.2 77.5C116.3 76.7 145.7 71.3 174.8 65C204 58.7 233 51.3 262 50.3C291 49.3 320 54.7 349 54.7C378 54.7 407 49.3 436.2 54.8C465.3 60.3 494.7 76.7 523.8 84.8C553 93 582 93 611 90.3C640 87.7 669 82.3 698 76.8C727 71.3 756 65.7 785.2 68.3C814.3 71 843.7 82 872.8 79.3C902 76.7 931 60.3 945.5 52.2L960 44L960 0L945.5 0C931 0 902 0 872.8 0C843.7 0 814.3 0 785.2 0C756 0 727 0 698 0C669 0 640 0 611 0C582 0 553 0 523.8 0C494.7 0 465.3 0 436.2 0C407 0 378 0 349 0C320 0 291 0 262 0C233 0 204 0 174.8 0C145.7 0 116.3 0 87.2 0C58 0 29 0 14.5 0L0 0Z" fill="#ffffff"></path><path d="M0 174L14.5 172.2C29 170.3 58 166.7 87.2 168.5C116.3 170.3 145.7 177.7 174.8 177.7C204 177.7 233 170.3 262 161.3C291 152.3 320 141.7 349 137.2C378 132.7 407 134.3 436.2 149.5C465.3 164.7 494.7 193.3 523.8 206C553 218.7 582 215.3 611 214.5C640 213.7 669 215.3 698 212.5C727 209.7 756 202.3 785.2 199.7C814.3 197 843.7 199 872.8 198.2C902 197.3 931 193.7 945.5 191.8L960 190L960 42L945.5 50.2C931 58.3 902 74.7 872.8 77.3C843.7 80 814.3 69 785.2 66.3C756 63.7 727 69.3 698 74.8C669 80.3 640 85.7 611 88.3C582 91 553 91 523.8 82.8C494.7 74.7 465.3 58.3 436.2 52.8C407 47.3 378 52.7 349 52.7C320 52.7 291 47.3 262 48.3C233 49.3 204 56.7 174.8 63C145.7 69.3 116.3 74.7 87.2 75.5C58 76.3 29 72.7 14.5 70.8L0 69Z" fill="#ffd7f5"></path><path d="M0 368L14.5 346.5C29 325 58 282 87.2 271.2C116.3 260.3 145.7 281.7 174.8 285.2C204 288.7 233 274.3 262 279.8C291 285.3 320 310.7 349 331.3C378 352 407 368 436.2 369.8C465.3 371.7 494.7 359.3 523.8 357.7C553 356 582 365 611 361.3C640 357.7 669 341.3 698 339.5C727 337.7 756 350.3 785.2 354.8C814.3 359.3 843.7 355.7 872.8 350.2C902 344.7 931 337.3 945.5 333.7L960 330L960 188L945.5 189.8C931 191.7 902 195.3 872.8 196.2C843.7 197 814.3 195 785.2 197.7C756 200.3 727 207.7 698 210.5C669 213.3 640 211.7 611 212.5C582 213.3 553 216.7 523.8 204C494.7 191.3 465.3 162.7 436.2 147.5C407 132.3 378 130.7 349 135.2C320 139.7 291 150.3 262 159.3C233 168.3 204 175.7 174.8 175.7C145.7 175.7 116.3 168.3 87.2 166.5C58 164.7 29 168.3 14.5 170.2L0 172Z" fill="#ffbfef"></path><path d="M0 476L14.5 469.7C29 463.3 58 450.7 87.2 444.3C116.3 438 145.7 438 174.8 443.5C204 449 233 460 262 458.3C291 456.7 320 442.3 349 443.2C378 444 407 460 436.2 467.2C465.3 474.3 494.7 472.7 523.8 473.7C553 474.7 582 478.3 611 478.3C640 478.3 669 474.7 698 473.7C727 472.7 756 474.3 785.2 476.2C814.3 478 843.7 480 872.8 480C902 480 931 478 945.5 477L960 476L960 328L945.5 331.7C931 335.3 902 342.7 872.8 348.2C843.7 353.7 814.3 357.3 785.2 352.8C756 348.3 727 335.7 698 337.5C669 339.3 640 355.7 611 359.3C582 363 553 354 523.8 355.7C494.7 357.3 465.3 369.7 436.2 367.8C407 366 378 350 349 329.3C320 308.7 291 283.3 262 277.8C233 272.3 204 286.7 174.8 283.2C145.7 279.7 116.3 258.3 87.2 269.2C58 280 29 323 14.5 344.5L0 366Z" fill="#ffd7f5"></path><path d="M0 541L14.5 541C29 541 58 541 87.2 541C116.3 541 145.7 541 174.8 541C204 541 233 541 262 541C291 541 320 541 349 541C378 541 407 541 436.2 541C465.3 541 494.7 541 523.8 541C553 541 582 541 611 541C640 541 669 541 698 541C727 541 756 541 785.2 541C814.3 541 843.7 541 872.8 541C902 541 931 541 945.5 541L960 541L960 474L945.5 475C931 476 902 478 872.8 478C843.7 478 814.3 476 785.2 474.2C756 472.3 727 470.7 698 471.7C669 472.7 640 476.3 611 476.3C582 476.3 553 472.7 523.8 471.7C494.7 470.7 465.3 472.3 436.2 465.2C407 458 378 442 349 441.2C320 440.3 291 454.7 262 456.3C233 458 204 447 174.8 441.5C145.7 436 116.3 436 87.2 442.3C58 448.7 29 461.3 14.5 467.7L0 474Z" fill="#ffffff"></path></svg>