<svg id="visual" viewBox="0 0 960 540" width="960" height="540" xmlns="http://www.w3.org/2000/svg" xmlns:xlink="http://www.w3.org/1999/xlink" version="1.1"><rect x="0" y="0" width="960" height="540" fill="#ffffff"></rect><path d="M0 105L10.7 110.7C21.3 116.3 42.7 127.7 64 121.5C85.3 115.3 106.7 91.7 128 79.7C149.3 67.7 170.7 67.3 192 76.2C213.3 85 234.7 103 256 109.5C277.3 116 298.7 111 320 112.7C341.3 114.3 362.7 122.7 384 121.7C405.3 120.7 426.7 110.3 448 105.2C469.3 100 490.7 100 512 96.5C533.3 93 554.7 86 576 91.7C597.3 97.3 618.7 115.7 640 114C661.3 112.3 682.7 90.7 704 81.7C725.3 72.7 746.7 76.3 768 85.3C789.3 94.3 810.7 108.7 832 111.3C853.3 114 874.7 105 896 98.5C917.3 92 938.7 88 949.3 86L960 84L960 0L949.3 0C938.7 0 917.3 0 896 0C874.7 0 853.3 0 832 0C810.7 0 789.3 0 768 0C746.7 0 725.3 0 704 0C682.7 0 661.3 0 640 0C618.7 0 597.3 0 576 0C554.7 0 533.3 0 512 0C490.7 0 469.3 0 448 0C426.7 0 405.3 0 384 0C362.7 0 341.3 0 320 0C298.7 0 277.3 0 256 0C234.7 0 213.3 0 192 0C170.7 0 149.3 0 128 0C106.7 0 85.3 0 64 0C42.7 0 21.3 0 10.7 0L0 0Z" fill="#0066FF" stroke-linecap="round" stroke-linejoin="miter"></path></svg>