<svg version="1.1" xmlns:xlink="http://www.w3.org/1999/xlink" xmlns="http://www.w3.org/2000/svg" viewBox="0 209.52 956.7604049493813 331.56" id="visual" style="max-height: 500px" width="956.7604049493813" height="331.56"><rect fill="#FFFF" height="540" width="960" y="0" x="0"/><path fill="#faa269" d="M0 437L10.7 434.8C21.3 432.7 42.7 428.3 64 431.2C85.3 434 106.7 444 128 448.2C149.3 452.3 170.7 450.7 192 443.3C213.3 436 234.7 423 256 414.8C277.3 406.7 298.7 403.3 320 408.7C341.3 414 362.7 428 384 435.8C405.3 443.7 426.7 445.3 448 445.8C469.3 446.3 490.7 445.7 512 439.8C533.3 434 554.7 423 576 415.8C597.3 408.7 618.7 405.3 640 401.2C661.3 397 682.7 392 704 401.5C725.3 411 746.7 435 768 440.3C789.3 445.7 810.7 432.3 832 423C853.3 413.7 874.7 408.3 896 404.7C917.3 401 938.7 399 949.3 398L960 397L960 541L949.3 541C938.7 541 917.3 541 896 541C874.7 541 853.3 541 832 541C810.7 541 789.3 541 768 541C746.7 541 725.3 541 704 541C682.7 541 661.3 541 640 541C618.7 541 597.3 541 576 541C554.7 541 533.3 541 512 541C490.7 541 469.3 541 448 541C426.7 541 405.3 541 384 541C362.7 541 341.3 541 320 541C298.7 541 277.3 541 256 541C234.7 541 213.3 541 192 541C170.7 541 149.3 541 128 541C106.7 541 85.3 541 64 541C42.7 541 21.3 541 10.7 541L0 541Z"/><path fill="#f88c5c" d="M0 469L10.7 465.3C21.3 461.7 42.7 454.3 64 455.2C85.3 456 106.7 465 128 460.2C149.3 455.3 170.7 436.7 192 432.8C213.3 429 234.7 440 256 451C277.3 462 298.7 473 320 468.7C341.3 464.3 362.7 444.7 384 437.8C405.3 431 426.7 437 448 435.2C469.3 433.3 490.7 423.7 512 426.5C533.3 429.3 554.7 444.7 576 455.3C597.3 466 618.7 472 640 473.5C661.3 475 682.7 472 704 460.5C725.3 449 746.7 429 768 427.8C789.3 426.7 810.7 444.3 832 445C853.3 445.7 874.7 429.3 896 432.3C917.3 435.3 938.7 457.7 949.3 468.8L960 480L960 541L949.3 541C938.7 541 917.3 541 896 541C874.7 541 853.3 541 832 541C810.7 541 789.3 541 768 541C746.7 541 725.3 541 704 541C682.7 541 661.3 541 640 541C618.7 541 597.3 541 576 541C554.7 541 533.3 541 512 541C490.7 541 469.3 541 448 541C426.7 541 405.3 541 384 541C362.7 541 341.3 541 320 541C298.7 541 277.3 541 256 541C234.7 541 213.3 541 192 541C170.7 541 149.3 541 128 541C106.7 541 85.3 541 64 541C42.7 541 21.3 541 10.7 541L0 541Z"/><path fill="#f57552" d="M0 457L10.7 457.8C21.3 458.7 42.7 460.3 64 464.8C85.3 469.3 106.7 476.7 128 476C149.3 475.3 170.7 466.7 192 467C213.3 467.3 234.7 476.7 256 484C277.3 491.3 298.7 496.7 320 498.5C341.3 500.3 362.7 498.7 384 494.8C405.3 491 426.7 485 448 482C469.3 479 490.7 479 512 479.3C533.3 479.7 554.7 480.3 576 483.7C597.3 487 618.7 493 640 488.5C661.3 484 682.7 469 704 463.5C725.3 458 746.7 462 768 464.2C789.3 466.3 810.7 466.7 832 467.5C853.3 468.3 874.7 469.7 896 468.8C917.3 468 938.7 465 949.3 463.5L960 462L960 541L949.3 541C938.7 541 917.3 541 896 541C874.7 541 853.3 541 832 541C810.7 541 789.3 541 768 541C746.7 541 725.3 541 704 541C682.7 541 661.3 541 640 541C618.7 541 597.3 541 576 541C554.7 541 533.3 541 512 541C490.7 541 469.3 541 448 541C426.7 541 405.3 541 384 541C362.7 541 341.3 541 320 541C298.7 541 277.3 541 256 541C234.7 541 213.3 541 192 541C170.7 541 149.3 541 128 541C106.7 541 85.3 541 64 541C42.7 541 21.3 541 10.7 541L0 541Z"/><path fill="#f25b4d" d="M0 503L10.7 505C21.3 507 42.7 511 64 511.8C85.3 512.7 106.7 510.3 128 507.8C149.3 505.3 170.7 502.7 192 499.8C213.3 497 234.7 494 256 497.2C277.3 500.3 298.7 509.7 320 514.3C341.3 519 362.7 519 384 511.5C405.3 504 426.7 489 448 484.2C469.3 479.3 490.7 484.7 512 492C533.3 499.3 554.7 508.7 576 505.7C597.3 502.7 618.7 487.3 640 485.5C661.3 483.7 682.7 495.3 704 501.8C725.3 508.3 746.7 509.7 768 511.2C789.3 512.7 810.7 514.3 832 512C853.3 509.7 874.7 503.3 896 498.5C917.3 493.7 938.7 490.3 949.3 488.7L960 487L960 541L949.3 541C938.7 541 917.3 541 896 541C874.7 541 853.3 541 832 541C810.7 541 789.3 541 768 541C746.7 541 725.3 541 704 541C682.7 541 661.3 541 640 541C618.7 541 597.3 541 576 541C554.7 541 533.3 541 512 541C490.7 541 469.3 541 448 541C426.7 541 405.3 541 384 541C362.7 541 341.3 541 320 541C298.7 541 277.3 541 256 541C234.7 541 213.3 541 192 541C170.7 541 149.3 541 128 541C106.7 541 85.3 541 64 541C42.7 541 21.3 541 10.7 541L0 541Z"/><path fill="#ed3b4b" d="M0 524L10.7 524.5C21.3 525 42.7 526 64 520.8C85.3 515.7 106.7 504.3 128 497.8C149.3 491.3 170.7 489.7 192 494.8C213.3 500 234.7 512 256 518.7C277.3 525.3 298.7 526.7 320 525.5C341.3 524.3 362.7 520.7 384 520C405.3 519.3 426.7 521.7 448 520.5C469.3 519.3 490.7 514.7 512 509.5C533.3 504.3 554.7 498.7 576 496.8C597.3 495 618.7 497 640 498C661.3 499 682.7 499 704 501.8C725.3 504.7 746.7 510.3 768 515.7C789.3 521 810.7 526 832 526.7C853.3 527.3 874.7 523.7 896 516.5C917.3 509.3 938.7 498.7 949.3 493.3L960 488L960 541L949.3 541C938.7 541 917.3 541 896 541C874.7 541 853.3 541 832 541C810.7 541 789.3 541 768 541C746.7 541 725.3 541 704 541C682.7 541 661.3 541 640 541C618.7 541 597.3 541 576 541C554.7 541 533.3 541 512 541C490.7 541 469.3 541 448 541C426.7 541 405.3 541 384 541C362.7 541 341.3 541 320 541C298.7 541 277.3 541 256 541C234.7 541 213.3 541 192 541C170.7 541 149.3 541 128 541C106.7 541 85.3 541 64 541C42.7 541 21.3 541 10.7 541L0 541Z"/></svg>